<svg width="43" height="43" viewBox="0 0 43 43" fill="none" xmlns="http://www.w3.org/2000/svg">
<path d="M33.4822 11.4651C30.2371 8.40435 25.9826 6.71875 21.5 6.71875C21.4113 6.71875 21.3225 6.73084 21.2338 6.73205C21.2326 6.72789 21.2325 6.72292 21.2313 6.71875C20.3444 3.57438 17.4822 1.34375 14.1094 1.34375C10.0378 1.34375 6.71875 4.66281 6.71875 8.73438C6.71875 9.82281 7.14875 11.2069 8.04906 13.0344C8.05215 13.0404 8.05565 13.0471 8.05874 13.0532C5.46517 16.1712 4.03125 20.0814 4.03125 24.1875C4.03125 29.3879 6.31845 34.2754 10.3012 37.5915C13.4165 40.2128 17.3939 41.6562 21.5 41.6562C31.132 41.6562 38.9688 33.8202 38.9688 24.1875C38.9688 19.3958 36.9688 14.7589 33.4822 11.4651ZM14.1094 4.03125C16.5416 4.03125 18.5437 5.84531 18.7856 8.22375C18.7991 8.385 18.8125 8.55969 18.8125 8.73438C18.8125 8.95797 18.7725 9.22014 18.6986 9.51335C18.5702 10.0224 18.3246 10.6379 18.0212 11.2991C17.9743 11.4009 17.9405 11.4926 17.8903 11.597C17.8658 11.648 17.834 11.7045 17.8087 11.7559C16.9827 13.4446 15.7686 15.4132 14.6011 17.1368C14.4377 17.3778 14.273 17.6238 14.1129 17.8532C13.6579 17.1988 13.1012 16.3744 12.5318 15.476C12.5275 15.4691 12.5233 15.4632 12.519 15.4564C11.9451 14.55 11.3587 13.5682 10.8497 12.6075C10.8455 12.5995 10.839 12.5935 10.8345 12.5856C9.59437 10.2347 9.40625 9.16317 9.40625 8.73438C9.40625 6.14094 11.5159 4.03125 14.1094 4.03125ZM6.71875 24.1875C6.71875 21.0799 7.67846 18.0984 9.44885 15.6179C9.55554 15.7912 9.66237 15.9514 9.76906 16.125C9.82281 16.2191 9.87656 16.3131 9.94375 16.4072C9.95853 16.4319 9.97412 16.4549 9.98903 16.4796C10.0546 16.5852 10.1188 16.6884 10.1843 16.7922C10.3514 17.0621 10.5197 17.336 10.6828 17.5897C10.6828 17.5897 10.6962 17.5897 10.6962 17.6031C10.8978 17.9122 11.0994 18.2078 11.2875 18.49C11.4756 18.7722 11.6638 19.0409 11.825 19.2828C11.9703 19.484 12.0971 19.6587 12.2162 19.8304C12.241 19.8655 12.2714 19.9097 12.2954 19.9433V19.9547C12.4145 20.117 12.5108 20.2455 12.5985 20.3659C12.63 20.4095 12.6635 20.4566 12.692 20.4958C12.7034 20.5125 12.717 20.5291 12.7253 20.5459C12.7494 20.5755 12.7654 20.5978 12.7863 20.625C12.918 20.8051 13.0148 20.9359 13.0333 20.9608L13.0344 20.9625L13.04 20.9672C13.2934 21.3023 13.6892 21.5 14.1094 21.5C14.3217 21.5 14.5271 21.4497 14.7115 21.3574C14.8132 21.3062 14.8875 21.2143 14.9738 21.1387C15.0436 21.0777 15.1286 21.0375 15.1855 20.9621C15.5131 20.5242 16.2498 19.52 17.1061 18.2436C17.3025 17.9522 17.5036 17.6514 17.7108 17.3345C17.7523 17.2629 17.7996 17.191 17.8429 17.1194C18.7514 15.7 19.7003 14.0832 20.4054 12.5474C20.4234 12.5086 20.4476 12.4683 20.4653 12.4297C20.5394 12.2499 20.6164 12.0743 20.6874 11.9011C20.7834 11.6713 20.869 11.4467 20.9504 11.2239C20.9671 11.1787 20.9863 11.13 21.0028 11.0859C21.0055 11.0791 21.007 11.0729 21.0097 11.066C21.0369 10.9887 21.0641 10.9115 21.0893 10.8352C21.1044 10.7892 21.1229 10.7393 21.1372 10.6961C21.1842 10.551 21.2194 10.4131 21.2579 10.2734C21.2717 10.2222 21.2893 10.1688 21.3022 10.1183C21.3565 9.90505 21.3985 9.69865 21.4288 9.49857C21.4335 9.46873 21.4432 9.43581 21.4475 9.40625C21.4645 9.40625 21.4829 9.40625 21.5 9.40625C25.17 9.40625 28.651 10.7512 31.3587 13.181C32.2259 16.4463 31.8488 19.6914 30.2842 22.1344C28.8092 24.4386 26.3593 25.9012 23.1981 26.365C18.3812 27.0762 14.1755 29.8971 10.9325 34.5133C8.24189 31.7697 6.71875 28.0849 6.71875 24.1875ZM21.5 38.9688C18.4326 38.9688 15.455 38.016 12.9841 36.2669C15.8374 32.0939 19.3954 29.6434 23.5905 29.0238C27.543 28.4444 30.6399 26.5627 32.5479 23.5839C33.746 21.7131 34.3879 19.4907 34.4817 17.1414C35.6438 19.2901 36.2812 21.7127 36.2812 24.1875C36.2812 32.3379 29.6504 38.9688 21.5 38.9688Z" fill="#666666"/>
<path d="M14.1094 10.75C15.2226 10.75 16.125 9.84757 16.125 8.73438C16.125 7.62118 15.2226 6.71875 14.1094 6.71875C12.9962 6.71875 12.0938 7.62118 12.0938 8.73438C12.0938 9.84757 12.9962 10.75 14.1094 10.75Z" fill="#666666"/>
</svg>
