<svg width="32" height="32" viewBox="0 0 32 32" fill="none" xmlns="http://www.w3.org/2000/svg">
<path d="M25.8667 9.78666L22.2134 6.13333C21.7366 5.68545 21.1117 5.42847 20.4578 5.41126C19.8039 5.39405 19.1664 5.61782 18.6667 6.03999L6.6667 18.04C6.23572 18.4746 5.96737 19.0443 5.9067 19.6533L5.33336 25.2133C5.3154 25.4086 5.34074 25.6055 5.40758 25.7898C5.47441 25.9742 5.5811 26.1416 5.72003 26.28C5.84462 26.4036 5.99237 26.5013 6.15482 26.5677C6.31727 26.634 6.49122 26.6677 6.6667 26.6667H6.7867L12.3467 26.16C12.9558 26.0993 13.5254 25.831 13.96 25.4L25.96 13.4C26.4258 12.9079 26.6775 12.2513 26.66 11.574C26.6425 10.8967 26.3572 10.254 25.8667 9.78666ZM12.1067 23.4933L8.1067 23.8667L8.4667 19.8667L16 12.4267L19.6 16.0267L12.1067 23.4933ZM21.3334 14.24L17.76 10.6667L20.36 7.99999L24 11.64L21.3334 14.24Z" fill="#333333"/>
</svg>
