<svg width="30" height="35" viewBox="0 0 30 35" fill="none" xmlns="http://www.w3.org/2000/svg">
<path d="M29.9288 13.3701C29.681 10.8288 28.7698 8.39404 27.2839 6.30291C25.798 4.21178 23.788 2.53555 21.4497 1.43745C19.1114 0.339351 16.5244 -0.143199 13.9407 0.0367918C11.357 0.216782 8.86462 1.05318 6.70624 2.46454C4.85196 3.68666 3.29531 5.29841 2.14811 7.184C1.0009 9.06959 0.29163 11.1822 0.0712368 13.3701C-0.144961 15.5437 0.132423 17.7374 0.883267 19.7922C1.63411 21.8469 2.83958 23.7112 4.41222 25.2497L13.7648 34.4855C13.9288 34.6485 14.124 34.7779 14.339 34.8662C14.554 34.9545 14.7847 35 15.0176 35C15.2506 35 15.4812 34.9545 15.6963 34.8662C15.9113 34.7779 16.1065 34.6485 16.2705 34.4855L25.5878 25.2497C27.1604 23.7112 28.3659 21.8469 29.1167 19.7922C29.8676 17.7374 30.145 15.5437 29.9288 13.3701ZM23.1173 22.7972L15 30.7981L6.88271 22.7972C5.68645 21.6181 4.7701 20.1923 4.19953 18.6224C3.62897 17.0526 3.41836 15.3776 3.58285 13.718C3.7484 12.0327 4.29181 10.4048 5.17379 8.95194C6.05576 7.49906 7.25426 6.25749 8.68263 5.31703C10.5548 4.09122 12.7524 3.43733 15 3.43733C17.2476 3.43733 19.4452 4.09122 21.3174 5.31703C22.7414 6.25386 23.9373 7.48994 24.819 8.93646C25.7008 10.383 26.2466 12.004 26.4171 13.6832C26.587 15.3485 26.379 17.0301 25.8083 18.6064C25.2376 20.1827 24.3184 21.6142 23.1173 22.7972ZM15 7.05635C13.4295 7.05635 11.8942 7.5154 10.5883 8.37544C9.28245 9.23547 8.26465 10.4579 7.66363 11.8881C7.06261 13.3183 6.90535 14.892 7.21175 16.4103C7.51815 17.9286 8.27444 19.3232 9.38499 20.4178C10.4955 21.5124 11.9105 22.2579 13.4508 22.5599C14.9912 22.8619 16.5878 22.7069 18.0388 22.1145C19.4898 21.5221 20.73 20.5189 21.6026 19.2317C22.4751 17.9446 22.9408 16.4313 22.9408 14.8833C22.9362 12.8089 22.0981 10.8207 20.6099 9.35389C19.1217 7.88705 17.1046 7.06095 15 7.05635ZM15 19.2316C14.1275 19.2316 13.2745 18.9766 12.5491 18.4988C11.8236 18.021 11.2581 17.3419 10.9242 16.5473C10.5903 15.7528 10.503 14.8785 10.6732 14.035C10.8434 13.1915 11.2636 12.4167 11.8805 11.8086C12.4975 11.2005 13.2836 10.7863 14.1393 10.6186C14.9951 10.4508 15.8821 10.5369 16.6882 10.866C17.4943 11.1951 18.1833 11.7524 18.6681 12.4675C19.1528 13.1826 19.4116 14.0233 19.4116 14.8833C19.4116 16.0366 18.9468 17.1426 18.1195 17.958C17.2921 18.7735 16.17 19.2316 15 19.2316Z" fill="#333333"/>
</svg>
