<svg width="20" height="12" viewBox="0 0 20 12" fill="none" xmlns="http://www.w3.org/2000/svg">
<path d="M5 2H19C19.6 2 20 1.6 20 1C20 0.4 19.6 0 19 0H5C4.4 0 4 0.4 4 1C4 1.6 4.4 2 5 2ZM19 5H9C8.4 5 8 5.4 8 6C8 6.6 8.4 7 9 7H19C19.6 7 20 6.6 20 6C20 5.4 19.6 5 19 5ZM19 10H13C12.4 10 12 10.4 12 11C12 11.6 12.4 12 13 12H19C19.6 12 20 11.6 20 11C20 10.4 19.6 10 19 10ZM1 0C0.4 0 0 0.4 0 1C0 1.6 0.4 2 1 2C1.6 2 2 1.6 2 1C2 0.4 1.6 0 1 0ZM5 5C4.4 5 4 5.4 4 6C4 6.6 4.4 7 5 7C5.6 7 6 6.6 6 6C6 5.4 5.6 5 5 5ZM9 10C8.4 10 8 10.4 8 11C8 11.6 8.4 12 9 12C9.6 12 10 11.6 10 11C10 10.4 9.6 10 9 10Z" fill="#F4F4F4"/>
</svg>
