<svg width="23" height="27" viewBox="0 0 23 27" fill="none" xmlns="http://www.w3.org/2000/svg">
<path d="M22.9454 10.3141C22.7554 8.35364 22.0569 6.4754 20.9177 4.86224C19.7785 3.24909 18.2375 1.956 16.4448 1.10889C14.6521 0.261785 12.6687 -0.110468 10.6879 0.0283822C8.70704 0.167232 6.79621 0.812452 5.14145 1.90121C3.71984 2.844 2.5264 4.08735 1.64688 5.54195C0.767359 6.99654 0.223583 8.62628 0.0546149 10.3141C-0.111137 11.9908 0.101525 13.6831 0.677171 15.2682C1.25282 16.8533 2.17701 18.2915 3.38271 19.4783L10.553 26.6031C10.6788 26.7289 10.8284 26.8287 10.9932 26.8968C11.1581 26.9649 11.3349 27 11.5135 27C11.6921 27 11.869 26.9649 12.0338 26.8968C12.1987 26.8287 12.3483 26.7289 12.4741 26.6031L19.6173 19.4783C20.823 18.2915 21.7472 16.8533 22.3228 15.2682C22.8985 13.6831 23.1111 11.9908 22.9454 10.3141ZM17.7233 17.5864L11.5 23.7586L5.27674 17.5864C4.35961 16.6768 3.65707 15.5769 3.21964 14.3659C2.78221 13.1549 2.62074 11.8627 2.74685 10.5824C2.87378 9.2824 3.29039 8.02659 3.96657 6.90579C4.64275 5.78499 5.5616 4.82721 6.65668 4.10171C8.09201 3.15608 9.77684 2.65166 11.5 2.65166C13.2232 2.65166 14.908 3.15608 16.3433 4.10171C17.4351 4.82441 18.3519 5.77795 19.0279 6.89384C19.7039 8.00973 20.1224 9.26026 20.2531 10.5556C20.3834 11.8402 20.2239 13.1375 19.7864 14.3535C19.3488 15.5695 18.6441 16.6738 17.7233 17.5864ZM11.5 5.44347C10.2959 5.44347 9.11887 5.79759 8.11771 6.46105C7.11654 7.12451 6.33623 8.06751 5.87545 9.1708C5.41466 10.2741 5.2941 11.4881 5.52901 12.6594C5.76391 13.8306 6.34374 14.9065 7.19516 15.7509C8.04657 16.5953 9.13134 17.1704 10.3123 17.4033C11.4932 17.6363 12.7173 17.5167 13.8298 17.0597C14.9422 16.6028 15.893 15.8289 16.562 14.8359C17.2309 13.843 17.588 12.6756 17.588 11.4814C17.5844 9.88114 16.9418 8.34743 15.8009 7.21586C14.66 6.08429 13.1135 5.44702 11.5 5.44347ZM11.5 14.8358C10.8311 14.8358 10.1771 14.6391 9.62095 14.2705C9.06475 13.9019 8.63124 13.378 8.37525 12.7651C8.11926 12.1522 8.05228 11.4777 8.18278 10.827C8.31329 10.1763 8.63541 9.57861 9.10842 9.10949C9.58143 8.64036 10.1841 8.32089 10.8402 8.19146C11.4962 8.06203 12.1763 8.12845 12.7943 8.38234C13.4123 8.63623 13.9406 9.06617 14.3122 9.6178C14.6838 10.1694 14.8822 10.818 14.8822 11.4814C14.8822 12.3711 14.5259 13.2243 13.8916 13.8533C13.2573 14.4824 12.397 14.8358 11.5 14.8358Z" fill="#333333"/>
</svg>
