<svg width="42" height="56" viewBox="0 0 42 56" fill="none" xmlns="http://www.w3.org/2000/svg">
<path d="M20.7448 30.1616C17.9086 30.1584 15.1895 29.0301 13.1841 27.0244C11.1788 25.0188 10.051 22.2994 10.0482 19.4632V14.0008H11.7774V19.4632C11.7774 24.4086 15.8012 28.4324 20.7448 28.4324C25.6885 28.4324 29.7123 24.4086 29.7123 19.4632V14.0008H31.4415V19.4632C31.4383 22.2993 30.3103 25.0183 28.3051 27.0239C26.2998 29.0295 23.5809 30.1579 20.7448 30.1616Z" fill="white"/>
<path d="M27.0718 31.9357H25.3427V29.1206C23.9038 29.7953 22.334 30.1451 20.7448 30.1451C19.1556 30.1451 17.5858 29.7953 16.147 29.1206V31.9357H14.4178V26.015L15.7631 26.9159C18.7217 28.8975 22.7662 28.8975 25.7248 26.9159L27.0701 26.015L27.0718 31.9357ZM10.8799 16.3576C10.6824 16.3573 10.491 16.2893 10.3374 16.1651C10.1839 16.0408 10.0776 15.8677 10.0361 15.6746L8.76342 9.71762C8.62529 9.0763 8.63281 8.41215 8.78544 7.77412C8.93806 7.13609 9.2319 6.54044 9.64529 6.03104C10.3013 5.21706 11.2268 4.66447 12.2546 4.47306C12.3434 3.78864 12.5694 3.12916 12.9189 2.53404C13.2684 1.93892 13.7343 1.42038 14.2887 1.00941C14.8432 0.598445 15.4748 0.303495 16.1459 0.14219C16.8169 -0.0191148 17.5136 -0.0434631 18.1943 0.0706028L28.4967 1.78767C29.182 1.89946 29.838 2.14758 30.4258 2.51736C31.0136 2.88714 31.5212 3.37106 31.9187 3.94048C32.3196 4.50723 32.6031 5.14847 32.7525 5.82643C32.9019 6.5044 32.9141 7.2054 32.7885 7.88817L31.3965 15.6487C31.3667 15.8079 31.2929 15.9556 31.1835 16.0751C31.0741 16.1946 30.9335 16.2811 30.7775 16.3248C30.6215 16.3685 30.4564 16.3677 30.3009 16.3225C30.1453 16.2773 30.0055 16.1894 29.8973 16.0689L26.6534 12.3926C26.5136 12.2348 26.4366 12.0311 26.4372 11.8203V10.4992H15.0559V11.8203C15.0558 12.0335 14.977 12.2392 14.8345 12.3978L11.5249 16.074C11.4427 16.1631 11.3429 16.2343 11.232 16.283C11.121 16.3318 11.0011 16.3572 10.8799 16.3576ZM17.347 1.72714C16.8981 1.72692 16.4535 1.8152 16.0388 1.98694C15.624 2.15868 15.2472 2.41051 14.9298 2.72802C14.6125 3.04553 14.3608 3.42249 14.1893 3.83734C14.0178 4.25219 13.9297 4.69679 13.9302 5.14571C13.9302 5.62296 13.5428 6.12615 13.0656 6.12615C12.6674 6.12551 12.2741 6.21419 11.9147 6.38567C11.5553 6.55714 11.2389 6.80704 10.9889 7.11696C10.7375 7.42587 10.5588 7.78735 10.466 8.17467C10.3732 8.56199 10.3687 8.96521 10.4528 9.3545L11.371 13.6549L13.325 11.4848V9.63117C13.325 9.40187 13.416 9.18196 13.5782 9.01981C13.7403 8.85767 13.9602 8.76658 14.1895 8.76658H27.3001C27.5294 8.76658 27.7493 8.85767 27.9114 9.01981C28.0736 9.18196 28.1647 9.40187 28.1647 9.63117V11.49L30.0097 13.5789L31.087 7.57692C31.1718 7.11949 31.1641 6.64968 31.0644 6.19527C30.9646 5.74086 30.7747 5.31107 30.506 4.93129C30.2399 4.55005 29.9001 4.22611 29.5065 3.97868C29.1129 3.73126 28.6737 3.56538 28.2148 3.4909L17.9124 1.77383C17.7255 1.74298 17.5364 1.72736 17.347 1.72714ZM0.864583 55.3175C0.635282 55.3175 0.415371 55.2264 0.25323 55.0642C0.0910891 54.9021 0 54.6822 0 54.4529V44.9027C0 42.4075 1.32973 40.061 3.46871 38.778L10.8851 34.3271C11.0814 34.2139 11.3143 34.1823 11.5337 34.2391C11.753 34.2959 11.9413 34.4366 12.0581 34.6308C12.1748 34.825 12.2106 35.0573 12.1578 35.2776C12.1049 35.498 11.9677 35.6888 11.7756 35.809L4.35923 40.2599C3.55905 40.7428 2.89672 41.4236 2.43606 42.2368C1.97541 43.05 1.73196 43.9681 1.72917 44.9027V54.4529C1.72917 54.6822 1.63808 54.9021 1.47594 55.0642C1.3138 55.2264 1.09389 55.3175 0.864583 55.3175ZM40.6354 55.3175C40.4061 55.3175 40.1862 55.2264 40.0241 55.0642C39.8619 54.9021 39.7708 54.6822 39.7708 54.4529V44.9027C39.768 43.9681 39.5246 43.05 39.0639 42.2368C38.6033 41.4236 37.941 40.7428 37.1408 40.2599L29.7226 35.809C29.6231 35.7517 29.5361 35.675 29.4665 35.5836C29.397 35.4922 29.3463 35.3879 29.3175 35.2767C29.2888 35.1655 29.2824 35.0497 29.2989 34.9361C29.3153 34.8224 29.3543 34.7131 29.4135 34.6147C29.4726 34.5163 29.5508 34.4306 29.6434 34.3627C29.7361 34.2948 29.8413 34.246 29.953 34.2193C30.0647 34.1925 30.1806 34.1882 30.2939 34.2068C30.4073 34.2253 30.5158 34.2662 30.6132 34.3271L38.0313 38.778C39.0868 39.4151 39.9604 40.3132 40.5679 41.386C41.1755 42.4587 41.4965 43.6699 41.5 44.9027V54.4529C41.5 54.6822 41.4089 54.9021 41.2468 55.0642C41.0846 55.2264 40.8647 55.3175 40.6354 55.3175Z" fill="white"/>
<path d="M9.51038 55.3175C9.28107 55.3175 9.06116 55.2264 8.89902 55.0642C8.73688 54.9021 8.64579 54.6822 8.64579 54.4529V50.4032C8.64579 49.0492 8.1426 47.7524 7.2296 46.7512L5.92063 45.3177C5.76585 45.1482 5.68472 44.9242 5.6951 44.695C5.70548 44.4657 5.80651 44.2499 5.97596 44.0952C6.14541 43.9404 6.36941 43.8593 6.59868 43.8696C6.82795 43.88 7.0437 43.981 7.19848 44.1505L8.50746 45.584C9.70994 46.9008 10.3761 48.6199 10.375 50.4032V54.4529C10.375 54.6822 10.2839 54.9021 10.1217 55.0642C9.95959 55.2264 9.73968 55.3175 9.51038 55.3175ZM31.9895 55.3175C31.7602 55.3175 31.5403 55.2264 31.3782 55.0642C31.216 54.9021 31.125 54.6822 31.125 54.4529V50.4032C31.1232 48.62 31.7902 46.901 32.9942 45.5857L34.3032 44.1505C34.4579 43.981 34.6737 43.88 34.903 43.8696C35.1322 43.8593 35.3562 43.9404 35.5257 44.0952C35.6951 44.2499 35.7962 44.4657 35.8065 44.695C35.8169 44.9242 35.7358 45.1482 35.581 45.3177L34.272 46.7512C33.3591 47.7482 32.8531 49.0513 32.8541 50.4032V54.4529C32.8541 54.6822 32.763 54.9021 32.6009 55.0642C32.4388 55.2264 32.2188 55.3175 31.9895 55.3175ZM15.5175 41.166L15.4691 41.1642C15.3476 41.1573 15.229 41.125 15.1209 41.0693C15.0127 41.0136 14.9175 40.9357 14.8414 40.8409L10.6551 35.6084C10.527 35.4483 10.46 35.2479 10.466 35.043C10.4721 34.8381 10.5507 34.642 10.6879 34.4896L13.5134 31.3495C13.6378 31.2109 13.8038 31.1163 13.9864 31.0799C14.169 31.0434 14.3586 31.067 14.5267 31.1472L21.12 34.2873C21.2444 34.3473 21.3527 34.4362 21.4359 34.5465C21.5191 34.6568 21.5748 34.7853 21.5983 34.9215C21.6218 35.0576 21.6125 35.1974 21.5711 35.3292C21.5297 35.461 21.4575 35.581 21.3604 35.6793L16.1279 40.9118C16.048 40.9924 15.953 41.0564 15.8482 41.1C15.7434 41.1437 15.631 41.1661 15.5175 41.166ZM12.4638 35.1L15.5884 39.0062L19.2732 35.3214L14.3676 32.9853L12.4638 35.1Z" fill="white"/>
<path d="M25.9825 41.166C25.753 41.1662 25.5329 41.0754 25.3703 40.9135L20.1379 35.681C20.0393 35.5835 19.9657 35.4636 19.9234 35.3315C19.8811 35.1994 19.8713 35.059 19.8949 34.9224C19.9185 34.7857 19.9748 34.6567 20.0589 34.5465C20.1431 34.4362 20.2526 34.3479 20.3782 34.2891L26.9715 31.1489C27.1397 31.0688 27.3292 31.0451 27.5118 31.0816C27.6945 31.1181 27.8604 31.2127 27.9848 31.3512L30.8103 34.4914C30.9475 34.6437 31.0262 34.8398 31.0322 35.0447C31.0382 35.2497 30.9712 35.4501 30.8431 35.6102L26.6568 40.8426C26.5807 40.9375 26.4855 41.0153 26.3773 41.071C26.2692 41.1267 26.1506 41.1591 26.0291 41.166H25.9825ZM22.2267 35.3214L25.9116 39.0062L29.0362 35.1001L27.1324 32.9853L22.2267 35.3214ZM19.0208 55.3175C18.7915 55.3175 18.5716 55.2264 18.4095 55.0642C18.2473 54.9021 18.1562 54.6822 18.1562 54.4529V37.1681C18.1562 36.9388 18.2473 36.7189 18.4095 36.5568C18.5716 36.3946 18.7915 36.3035 19.0208 36.3035C19.2501 36.3035 19.47 36.3946 19.6322 36.5568C19.7943 36.7189 19.8854 36.9388 19.8854 37.1681V54.4529C19.8854 54.6822 19.7943 54.9021 19.6322 55.0642C19.47 55.2264 19.2501 55.3175 19.0208 55.3175Z" fill="white"/>
<path d="M22.4792 55.3175C22.2499 55.3175 22.03 55.2264 21.8679 55.0642C21.7057 54.9021 21.6146 54.6822 21.6146 54.4529V37.1681C21.6146 36.9388 21.7057 36.7189 21.8679 36.5568C22.03 36.3946 22.2499 36.3036 22.4792 36.3036C22.7085 36.3036 22.9284 36.3946 23.0906 36.5568C23.2527 36.7189 23.3438 36.9388 23.3438 37.1681V54.4529C23.3438 54.6822 23.2527 54.9021 23.0906 55.0642C22.9284 55.2264 22.7085 55.3175 22.4792 55.3175Z" fill="white"/>
</svg>
