<svg width="28" height="27" viewBox="0 0 28 27" fill="none" xmlns="http://www.w3.org/2000/svg">
<path d="M18.6222 1C14 1 10.2444 4.61111 10.2444 9.05556C10.2444 9.36111 10.2733 9.63889 10.3022 9.94445C10.0133 9.91667 9.69556 9.88889 9.37778 9.88889C4.75556 9.88889 1 13.5 1 17.9444C1 22.3889 4.75556 26 9.37778 26C14 26 17.7556 22.3889 17.7556 17.9444C17.7556 17.6389 17.7267 17.3611 17.6978 17.0556C17.9867 17.0833 18.3044 17.1111 18.6222 17.1111C23.2444 17.1111 27 13.5 27 9.05556C27 4.61111 23.2444 1 18.6222 1ZM9.37778 24.8889C5.39111 24.8889 2.15556 21.7778 2.15556 17.9444C2.15556 14.1111 5.39111 11 9.37778 11C13.3644 11 16.6 14.1111 16.6 17.9444C16.6 21.7778 13.3644 24.8889 9.37778 24.8889ZM18.6222 16C18.2467 16 17.8422 15.9722 17.4956 15.9167C17.2644 15.0556 16.8889 14.2222 16.3689 13.5C16.3689 13.4722 16.34 13.4444 16.3111 13.4444C16.34 12.25 17.38 11.2778 18.6222 11.2778C19.8933 11.2778 20.9333 12.2778 20.9333 13.5C20.9333 13.8056 21.1933 14.0556 21.5111 14.0556C21.8289 14.0556 22.0889 13.8056 22.0889 13.5C22.0889 11.6667 20.5289 10.1667 18.6222 10.1667C17.1489 10.1667 15.8778 11.0556 15.3867 12.3333C14.3467 11.3056 12.9889 10.5278 11.4867 10.1389C11.4289 9.77778 11.4 9.41667 11.4 9.05556C11.4 5.22222 14.6356 2.11111 18.6222 2.11111C22.6089 2.11111 25.8444 5.22222 25.8444 9.05556C25.8444 12.8889 22.6089 16 18.6222 16ZM12.8444 19.8889C12.8444 21.7222 11.2844 23.2222 9.37778 23.2222C7.47111 23.2222 5.91111 21.7222 5.91111 19.8889C5.91111 19.5833 6.17111 19.3333 6.48889 19.3333C6.80667 19.3333 7.06667 19.5833 7.06667 19.8889C7.06667 21.1111 8.10667 22.1111 9.37778 22.1111C10.6489 22.1111 11.6889 21.1111 11.6889 19.8889C11.6889 19.5833 11.9489 19.3333 12.2667 19.3333C12.5844 19.3333 12.8444 19.5833 12.8444 19.8889Z" fill="#010101" stroke="#010101"/>
</svg>
