<svg width="43" height="43" viewBox="0 0 43 43" fill="none" xmlns="http://www.w3.org/2000/svg">
<path d="M6.49297 26.875C8.97396 29.3595 12.2778 30.851 15.7822 31.0684C19.2866 31.2859 22.7495 30.2144 25.5187 28.0557L35.0468 37.5838C35.3847 37.9102 35.8372 38.0907 36.307 38.0867C36.7768 38.0826 37.2262 37.8942 37.5584 37.562C37.8905 37.2298 38.079 36.7804 38.0831 36.3106C38.0871 35.8409 37.9065 35.3883 37.5802 35.0504L28.0521 25.5223C30.3065 22.629 31.3724 18.9848 31.0323 15.3327C30.6922 11.6806 28.9718 8.29576 26.2219 5.86854C23.472 3.44131 19.8997 2.1545 16.2337 2.27054C12.5676 2.38658 9.08388 3.89672 6.49297 6.493C5.15423 7.83106 4.09225 9.41977 3.36769 11.1684C2.64313 12.917 2.2702 14.7912 2.2702 16.684C2.2702 18.5768 2.64313 20.451 3.36769 22.1996C4.09225 23.9482 5.15423 25.5369 6.49297 26.875ZM9.02639 9.03C10.7976 7.25884 13.1281 6.1566 15.6208 5.91106C18.1136 5.66552 20.6144 6.29188 22.6971 7.68342C24.7798 9.07497 26.3156 11.1456 27.0429 13.5425C27.7701 15.9394 27.6437 18.5144 26.6854 20.8286C25.727 23.1428 23.9958 25.0531 21.7869 26.2341C19.5779 27.4151 17.0278 27.7936 14.5711 27.3052C12.1144 26.8168 9.90295 25.4917 8.31366 23.5556C6.72437 21.6196 5.85552 19.1924 5.85514 16.6876C5.85022 15.2642 6.12802 13.8541 6.6724 12.5389C7.21679 11.2238 8.01693 10.0299 9.02639 9.02642V9.03Z" fill="#666666"/>
</svg>
