<svg width="88" height="88" viewBox="0 0 88 88" fill="none" xmlns="http://www.w3.org/2000/svg">
<g clip-path="url(#clip0_73_1002)">
<path d="M18.5973 0H69.4027C79.673 0 88 8.327 88 18.5973V69.4027C88 79.673 79.673 88 69.4027 88H18.5973C8.327 88 0 79.673 0 69.4027V18.5973C0 8.327 8.327 0 18.5973 0Z" fill="url(#paint0_linear_73_1002)"/>
<path d="M64.2145 73.3333C63.9714 73.3333 63.7382 73.2368 63.5663 73.0649C63.3944 72.893 63.2978 72.6598 63.2978 72.4167V64.5718C63.3013 63.4811 63.025 62.4076 62.4954 61.4541C61.9658 60.5005 61.2006 59.6986 60.2728 59.125L49.0106 52.1107C48.8164 51.977 48.6811 51.7735 48.633 51.5427C48.5849 51.3118 48.6276 51.0713 48.7522 50.8711C48.8769 50.6709 49.0739 50.5265 49.3023 50.4678C49.5307 50.4091 49.7729 50.4407 49.9786 50.556L61.2408 57.5703C62.4342 58.3074 63.4185 59.3383 64.0996 60.5645C64.7808 61.7906 65.1359 63.171 65.1311 64.5737V72.4167C65.1311 72.6598 65.0346 72.893 64.8627 73.0649C64.6908 73.2368 64.4576 73.3333 64.2145 73.3333ZM23.7858 73.3333C23.5427 73.3333 23.3095 73.2368 23.1376 73.0649C22.9657 72.893 22.8691 72.6598 22.8691 72.4167V64.57C22.8691 61.7027 24.3211 59.0847 26.7558 57.5685L38.0106 50.5542C38.217 50.4256 38.4661 50.3842 38.703 50.4392C38.9399 50.4942 39.1452 50.6411 39.2738 50.8475C39.4024 51.0539 39.4438 51.303 39.3888 51.5398C39.3337 51.7767 39.1869 51.9821 38.9805 52.1107L27.7256 59.125C26.7985 59.6987 26.0338 60.5003 25.5045 61.4536C24.9753 62.4068 24.6991 63.4797 24.7025 64.57V72.4167C24.7025 72.6598 24.6059 72.893 24.434 73.0649C24.2621 73.2368 24.0289 73.3333 23.7858 73.3333Z" fill="white"/>
<path d="M50.4112 51.3333H48.5778V47.4265C47.1496 48.1205 45.5824 48.4811 43.9945 48.4811C42.4066 48.4811 40.8394 48.1205 39.4112 47.4265V51.3333H37.5778V44.0495L39.0225 45.0688C40.4804 46.0875 42.216 46.6338 43.9945 46.6338C45.773 46.6338 47.5086 46.0875 48.9665 45.0688L50.4112 44.0495V51.3333ZM32.0833 73.3333C31.8402 73.3333 31.6071 73.2368 31.4352 73.0648C31.2632 72.8929 31.1667 72.6598 31.1667 72.4167V68.0295C31.1672 66.7799 30.7003 65.5753 29.8577 64.6525L28.6238 63.3013C28.5426 63.2124 28.4796 63.1083 28.4386 62.995C28.3976 62.8817 28.3793 62.7615 28.3847 62.6411C28.3902 62.5207 28.4193 62.4026 28.4704 62.2935C28.5215 62.1844 28.5935 62.0864 28.6825 62.0052C28.7715 61.9239 28.8756 61.861 28.9888 61.8199C29.1021 61.7789 29.2224 61.7606 29.3427 61.7661C29.4631 61.7715 29.5812 61.8006 29.6903 61.8517C29.7994 61.9028 29.8974 61.9749 29.9787 62.0638L31.2125 63.415C32.3638 64.68 33 66.3172 33 68.0295V72.4167C33 72.6598 32.9034 72.8929 32.7315 73.0648C32.5596 73.2368 32.3265 73.3333 32.0833 73.3333ZM55.9167 73.3333C55.6736 73.3333 55.4404 73.2368 55.2685 73.0648C55.0966 72.8929 55 72.6598 55 72.4167V68.0295C55 66.3172 55.6362 64.6782 56.7893 63.415L58.0232 62.0638C58.1044 61.9749 58.2024 61.9028 58.3115 61.8517C58.4206 61.8006 58.5387 61.7715 58.6591 61.7661C58.7795 61.7606 58.8997 61.7789 59.013 61.8199C59.1263 61.861 59.2304 61.9239 59.3193 62.0052C59.4083 62.0864 59.4804 62.1844 59.5315 62.2935C59.5826 62.4026 59.6117 62.5207 59.6171 62.6411C59.6226 62.7615 59.6043 62.8817 59.5632 62.995C59.5222 63.1083 59.4593 63.2124 59.378 63.3013L58.1442 64.6525C57.2997 65.5742 56.8319 66.7794 56.8333 68.0295V72.4167C56.8333 72.6598 56.7368 72.8929 56.5649 73.0648C56.3929 73.2368 56.1598 73.3333 55.9167 73.3333Z" fill="white"/>
<path d="M43.9998 48.4953C41.3265 48.4924 38.7634 47.4291 36.8731 45.5388C34.9827 43.6484 33.9194 41.0854 33.9165 38.412V35.75C33.9165 35.5069 34.0131 35.2737 34.185 35.1018C34.3569 34.9299 34.5901 34.8333 34.8332 34.8333C35.0763 34.8333 35.3094 34.9299 35.4814 35.1018C35.6533 35.2737 35.7498 35.5069 35.7498 35.75V38.412C35.7498 42.9605 39.4513 46.662 43.9998 46.662C48.5483 46.662 52.2498 42.9605 52.2498 38.412V34.2577C52.2498 34.0146 52.3464 33.7814 52.5183 33.6095C52.6902 33.4376 52.9234 33.341 53.1665 33.341C53.4096 33.341 53.6428 33.4376 53.8147 33.6095C53.9866 33.7814 54.0832 34.0146 54.0832 34.2577V38.412C54.0832 43.9707 49.5603 48.4953 43.9998 48.4953ZM48.7995 32.6627C45.2218 32.6717 41.7341 31.5423 38.8408 29.4378C38.7393 29.3688 38.6527 29.2802 38.5861 29.177C38.5195 29.0739 38.4742 28.9585 38.4531 28.8376C38.4319 28.7166 38.4353 28.5927 38.463 28.4731C38.4906 28.3535 38.542 28.2407 38.6141 28.1413C38.6862 28.042 38.7775 27.9581 38.8826 27.8947C38.9878 27.8313 39.1045 27.7897 39.2261 27.7723C39.3476 27.7549 39.4713 27.762 39.59 27.7934C39.7087 27.8247 39.8199 27.8796 39.917 27.9547C42.4979 29.8313 45.6085 30.8386 48.7995 30.8312C49.0353 30.8417 49.2579 30.9428 49.421 31.1134C49.5842 31.284 49.6752 31.5109 49.6752 31.7469C49.6752 31.9829 49.5842 32.2099 49.421 32.3805C49.2579 32.551 49.0353 32.6521 48.7995 32.6627Z" fill="white"/>
<path d="M34.8332 37.554C34.5901 37.554 34.357 37.4574 34.1851 37.2855C34.0132 37.1136 33.9166 36.8805 33.9166 36.6373C33.9089 34.7976 34.5286 33.0101 35.6734 31.5699C36.8183 30.1297 38.4199 29.1229 40.2141 28.7155C40.4458 28.6747 40.6843 28.7243 40.8805 28.8542C41.0767 28.9841 41.2155 29.1843 41.2684 29.4135C41.3213 29.6428 41.2842 29.8836 41.1648 30.0863C41.0454 30.289 40.8527 30.4382 40.6266 30.503C39.2375 30.8187 37.9976 31.5984 37.1113 32.7136C36.2251 33.8289 35.7455 35.2129 35.7517 36.6373C35.7513 36.8806 35.6543 37.1138 35.4821 37.2856C35.3099 37.4575 35.0765 37.554 34.8332 37.554Z" fill="white"/>
<path d="M53.2437 37.1067C53.0006 37.1067 52.7674 37.0101 52.5955 36.8382C52.4236 36.6663 52.327 36.4331 52.327 36.19C52.3261 35.2548 51.9541 34.3582 51.2928 33.6969C50.6315 33.0356 49.7349 32.6636 48.7997 32.6627C48.5566 32.6627 48.3234 32.5661 48.1515 32.3942C47.9796 32.2223 47.883 31.9891 47.883 31.746C47.883 31.5029 47.9796 31.2697 48.1515 31.0978C48.3234 30.9259 48.5566 30.8293 48.7997 30.8293C50.7339 30.8293 52.4315 31.8597 53.3739 33.3978C53.5132 32.7488 53.5865 32.0687 53.5865 31.3757C53.5841 28.8897 52.5956 26.5061 50.8379 24.7481C49.0802 22.99 46.6969 22.0011 44.2109 21.9982C42.66 22.0007 41.134 22.3873 39.769 23.1234C38.404 23.8596 37.2426 24.9223 36.3885 26.2168C35.5343 27.5112 35.0141 28.997 34.8742 30.5415C34.7344 32.0861 34.9792 33.6412 35.5869 35.068C35.6342 35.1786 35.6592 35.2975 35.6606 35.4178C35.662 35.5381 35.6396 35.6575 35.5949 35.7692C35.5501 35.8809 35.4838 35.9826 35.3997 36.0687C35.3156 36.1547 35.2153 36.2234 35.1047 36.2707C34.9941 36.318 34.8752 36.343 34.7549 36.3444C34.6346 36.3458 34.5152 36.3234 34.4035 36.2787C34.2918 36.2339 34.1901 36.1675 34.104 36.0834C34.018 35.9993 33.9494 35.8991 33.902 35.7885C33.1756 34.083 32.8829 32.2241 33.0501 30.3779C33.2174 28.5318 33.8392 26.7557 34.8603 25.2085C35.8813 23.6613 37.2696 22.391 38.9013 21.5112C40.533 20.6314 42.3571 20.1695 44.2109 20.1667C46.0889 20.1692 47.9363 20.6431 49.5837 21.5449C51.231 22.4467 52.6256 23.7476 53.6397 25.3284C54.6537 26.9091 55.2548 28.7191 55.3877 30.5925C55.5207 32.4658 55.1812 34.3426 54.4005 36.0507L54.0192 36.6758C53.9374 36.8078 53.8232 36.9166 53.6874 36.992C53.5517 37.0674 53.399 37.1069 53.2437 37.1067Z" fill="white"/>
<path d="M48.7996 32.6627C45.2219 32.6717 41.7342 31.5423 38.8409 29.4378C38.7394 29.3688 38.6527 29.2802 38.5861 29.177C38.5195 29.0739 38.4743 28.9585 38.4532 28.8376C38.432 28.7166 38.4354 28.5927 38.463 28.4731C38.4907 28.3535 38.5421 28.2407 38.6142 28.1413C38.6863 28.042 38.7776 27.9581 38.8827 27.8947C38.9878 27.8313 39.1046 27.7897 39.2261 27.7723C39.3476 27.7549 39.4714 27.762 39.5901 27.7934C39.7088 27.8247 39.82 27.8796 39.9171 27.9547C42.4979 29.8313 45.6086 30.8386 48.7996 30.8312C49.0354 30.8417 49.258 30.9428 49.4211 31.1134C49.5842 31.284 49.6753 31.5109 49.6753 31.7469C49.6753 31.9829 49.5842 32.2099 49.4211 32.3805C49.258 32.551 49.0354 32.6521 48.7996 32.6627Z" fill="white"/>
<path d="M34.8332 37.554C34.5901 37.554 34.357 37.4574 34.1851 37.2855C34.0132 37.1136 33.9166 36.8805 33.9166 36.6373C33.9089 34.7976 34.5286 33.0101 35.6734 31.5699C36.8183 30.1297 38.4199 29.1229 40.2141 28.7155C40.4458 28.6747 40.6843 28.7243 40.8805 28.8542C41.0767 28.9841 41.2155 29.1843 41.2684 29.4135C41.3213 29.6428 41.2842 29.8836 41.1648 30.0863C41.0454 30.289 40.8527 30.4382 40.6266 30.503C39.2375 30.8187 37.9976 31.5984 37.1113 32.7136C36.2251 33.8289 35.7455 35.2129 35.7517 36.6373C35.7513 36.8806 35.6543 37.1138 35.4821 37.2856C35.3099 37.4575 35.0765 37.554 34.8332 37.554Z" fill="white"/>
<path d="M53.2437 37.1067C53.0006 37.1067 52.7674 37.0101 52.5955 36.8382C52.4236 36.6663 52.327 36.4331 52.327 36.19C52.3261 35.2548 51.9541 34.3582 51.2928 33.6969C50.6315 33.0356 49.7349 32.6636 48.7997 32.6627C48.5566 32.6627 48.3234 32.5661 48.1515 32.3942C47.9796 32.2223 47.883 31.9891 47.883 31.746C47.883 31.5029 47.9796 31.2697 48.1515 31.0978C48.3234 30.9259 48.5566 30.8293 48.7997 30.8293C50.7339 30.8293 52.4315 31.8597 53.3739 33.3978C53.5132 32.7488 53.5865 32.0687 53.5865 31.3757C53.5841 28.8897 52.5956 26.5061 50.8379 24.7481C49.0802 22.99 46.6969 22.0011 44.2109 21.9982C42.66 22.0007 41.134 22.3873 39.769 23.1234C38.404 23.8596 37.2426 24.9223 36.3885 26.2168C35.5343 27.5112 35.0141 28.997 34.8742 30.5415C34.7344 32.0861 34.9792 33.6412 35.5869 35.068C35.6342 35.1786 35.6592 35.2975 35.6606 35.4178C35.662 35.5381 35.6396 35.6575 35.5949 35.7692C35.5501 35.8809 35.4838 35.9826 35.3997 36.0687C35.3156 36.1547 35.2153 36.2234 35.1047 36.2707C34.9941 36.318 34.8752 36.343 34.7549 36.3444C34.6346 36.3458 34.5152 36.3234 34.4035 36.2787C34.2918 36.2339 34.1901 36.1675 34.104 36.0834C34.018 35.9993 33.9494 35.8991 33.902 35.7885C33.1756 34.083 32.8829 32.2241 33.0501 30.3779C33.2174 28.5318 33.8392 26.7557 34.8603 25.2085C35.8813 23.6613 37.2696 22.391 38.9013 21.5112C40.533 20.6314 42.3571 20.1695 44.2109 20.1667C46.0889 20.1692 47.9363 20.6431 49.5837 21.5449C51.231 22.4467 52.6256 23.7476 53.6397 25.3284C54.6537 26.9091 55.2548 28.7191 55.3877 30.5925C55.5207 32.4658 55.1812 34.3426 54.4005 36.0507L54.0192 36.6758C53.9374 36.8078 53.8232 36.9166 53.6874 36.992C53.5517 37.0674 53.399 37.1069 53.2437 37.1067Z" fill="white"/>
<path d="M40.6433 22.649C40.423 22.649 40.2102 22.5696 40.0438 22.4253C39.0483 21.5618 38.5001 20.4343 38.5001 19.25C38.5001 16.7237 40.9678 14.6667 44.0001 14.6667C47.0324 14.6667 49.5001 16.7237 49.5001 19.25C49.5001 20.361 49.0033 21.4408 48.0976 22.2878C47.9771 22.4008 47.8282 22.479 47.6668 22.5142C47.5054 22.5494 47.3375 22.5402 47.1809 22.4877C45.1579 21.806 42.9617 21.8423 40.9623 22.5903C40.8603 22.6288 40.7522 22.6487 40.6433 22.649ZM44.0001 16.5C41.9779 16.5 40.3334 17.7338 40.3334 19.25C40.3334 19.7505 40.5278 20.2437 40.8908 20.68C42.9348 20.0355 45.1221 19.9992 47.1864 20.5755C47.4468 20.2345 47.6668 19.7872 47.6668 19.25C47.6668 17.7338 46.0223 16.5 44.0001 16.5ZM44.0001 58.6667C42.1598 58.6619 40.3453 58.2332 38.6974 57.4138C37.0495 56.5945 35.6125 55.4066 34.4979 53.9422C34.3511 53.7482 34.2873 53.5038 34.3207 53.2627C34.354 53.0217 34.4818 52.8038 34.6758 52.657C34.8698 52.5102 35.1142 52.4464 35.3552 52.4797C35.5962 52.5131 35.8141 52.6408 35.9609 52.8348C37.8548 55.3392 40.8596 56.8333 44.0001 56.8333C47.1406 56.8333 50.1454 55.3392 52.0393 52.8348C52.112 52.7388 52.2029 52.658 52.3068 52.597C52.4108 52.5361 52.5257 52.4963 52.645 52.4797C52.7644 52.4632 52.8858 52.4704 53.0023 52.5008C53.1189 52.5312 53.2284 52.5843 53.3244 52.657C53.4205 52.7297 53.5013 52.8206 53.5622 52.9246C53.6231 53.0285 53.663 53.1434 53.6795 53.2627C53.696 53.3821 53.6889 53.5035 53.6585 53.6201C53.628 53.7367 53.575 53.8461 53.5023 53.9422C52.3876 55.4066 50.9507 56.5945 49.3028 57.4138C47.6549 58.2332 45.8404 58.6619 44.0001 58.6667Z" fill="white"/>
</g>
<defs>
<linearGradient id="paint0_linear_73_1002" x1="5.38932" y1="1.46983" x2="81.8399" y2="85.7076" gradientUnits="userSpaceOnUse">
<stop stop-color="#063773"/>
<stop offset="1" stop-color="#D9ECD9"/>
</linearGradient>
<clipPath id="clip0_73_1002">
<rect width="88" height="88" fill="white"/>
</clipPath>
</defs>
</svg>
